<svg width="24" height="25" viewBox="0 0 24 25" fill="none" xmlns="http://www.w3.org/2000/svg">
<path fill-rule="evenodd" clip-rule="evenodd" d="M16.9848 4.87967V3.15967H15.4848V7.70967H14.4848V4.87967H9.5148V3.15967H8.0148V7.70967H7.0148V4.87967H3.4248V10.0097H21.0748V4.87967H16.9848Z" fill="white"/>
<path fill-rule="evenodd" clip-rule="evenodd" d="M8.8948 17.2198V18.7198H7.3948L7.3848 17.2198H8.8948ZM8.8948 13.6298V15.1298H7.3948L7.3848 13.6298H8.8948ZM13.0048 17.2198V18.7198H11.5048L11.4948 17.2198H13.0048ZM13.0048 13.6298V15.1298H11.5048L11.4948 13.6298H13.0048ZM17.1148 17.2198V18.7198H15.6148L15.6048 17.2198H17.1148ZM17.1148 13.6298V15.1298H15.6148L15.6048 13.6298H17.1148ZM3.4248 22.9098H21.0748V11.5098H3.4248V22.9098Z" fill="white"/>
</svg>
