<svg width="24" height="24" viewBox="0 0 24 24" fill="none" xmlns="http://www.w3.org/2000/svg">
<path fill-rule="evenodd" clip-rule="evenodd" d="M16.21 13.8769L13.3828 15.5041C12.8836 15.3313 11.4484 14.7524 10.1361 13.4401C8.9044 12.2084 8.38984 10.8481 8.23912 10.3729L9.87015 7.53989L6.32104 2.66309L5.94664 2.88389C4.42792 3.77477 3.3124 4.88837 2.43976 6.38981L2.38408 6.54245C1.89064 9.17573 3.39688 13.058 6.13192 16.2029C9.09928 19.6148 12.9498 21.5367 16.7745 21.5367C16.9473 21.5367 17.1201 21.5338 17.2929 21.5252L17.4071 21.5204L17.506 21.4647C19.0439 20.6026 20.1614 19.4852 21.0225 17.9473L21.2289 17.5777L16.21 13.8769Z" fill="white"/>
</svg>
