<svg width="100%" height="175" viewBox="0 0 406 175" fill="none" xmlns="http://www.w3.org/2000/svg">
<g opacity="0.8">
<rect x="0.5" y="0.5" width="405" height="174" stroke="white" stroke-dasharray="25 25"/>
<path fill-rule="evenodd" clip-rule="evenodd" d="M182.319 70.8047V73.4555H185.666V87.4239H197.378V84.6039H188.486V73.4555H192.283V80.9943H213.245V73.4555H216.573V84.6039H207.737V87.4239H219.393V73.4555H222.739V70.8047H182.319Z" fill="white"/>
<path fill-rule="evenodd" clip-rule="evenodd" d="M216.569 65.9171H219.389V53.7065H207.728V56.5265H216.569V65.9171Z" fill="white"/>
<path fill-rule="evenodd" clip-rule="evenodd" d="M188.49 56.5261H197.386V53.7061H185.67V65.9166H188.49V56.5261Z" fill="white"/>
<path fill-rule="evenodd" clip-rule="evenodd" d="M192.283 67.9848H213.245V60.0137H192.283V67.9848Z" fill="white"/>
<path d="M172.252 117.562C172.362 117.562 172.416 117.763 172.416 118.164V118.312C172.416 118.771 172.362 119 172.252 119H171.143H170.947C171.244 119.229 171.393 119.523 171.393 119.883C171.393 120.68 170.921 121.383 169.979 121.992C168.895 122.695 167.614 123.047 166.135 123.047C162.786 123.047 161.112 121.698 161.112 119C161.112 117.891 161.375 116.763 161.901 115.617L163.143 116.125C162.7 117.245 162.479 118.172 162.479 118.906C162.479 120.75 163.695 121.672 166.127 121.672C167.044 121.672 167.867 121.505 168.596 121.172C169.195 120.901 169.622 120.573 169.877 120.188C169.997 120.005 170.057 119.831 170.057 119.664C170.057 119.216 169.713 118.992 169.026 118.992H167.83C167.528 118.961 167.322 118.716 167.213 118.258C167.161 118.039 167.135 117.878 167.135 117.773C167.135 117.654 167.164 117.583 167.221 117.562H172.252ZM172.237 119H171.846C171.544 119 171.393 118.771 171.393 118.312V118.164C171.393 117.763 171.544 117.562 171.846 117.562H172.253C173.638 117.562 174.333 117.023 174.338 115.945L174.378 107.766H175.729V115.945C175.729 117.023 176.292 117.562 177.417 117.562H177.549C177.674 117.562 177.737 117.763 177.737 118.164V118.312C177.737 118.771 177.674 119 177.549 119H177.432C176.312 119 175.489 118.63 174.963 117.891C174.458 118.63 173.549 119 172.237 119ZM182.12 117.773C182.849 117.773 183.214 117.417 183.214 116.703C183.214 116.365 183.162 116.073 183.057 115.828C182.807 115.26 182.391 114.977 181.807 114.977C181.089 114.977 180.539 115.516 180.159 116.594C180.841 117.38 181.495 117.773 182.12 117.773ZM179.479 117.883C178.839 118.628 178.11 119 177.292 119H177.128C176.831 119 176.682 118.771 176.682 118.312V118.164C176.682 117.763 176.831 117.562 177.128 117.562H177.253C177.675 117.562 178.091 117.318 178.503 116.828C178.68 116.609 178.878 116.255 179.097 115.766C179.779 114.255 180.672 113.497 181.776 113.492C182.636 113.492 183.313 113.802 183.807 114.422C184.302 115.036 184.55 115.758 184.55 116.586C184.55 117.393 184.375 118.003 184.026 118.414C183.594 118.919 182.995 119.172 182.229 119.172C181.219 119.172 180.302 118.742 179.479 117.883ZM192.152 118.992C191.454 118.992 190.709 118.917 189.917 118.766V117.328C190.647 117.479 191.404 117.555 192.191 117.555C193.832 117.555 194.652 117.18 194.652 116.43C194.652 116.102 194.415 115.375 193.941 114.25L192.949 111.898L194.238 111.305L195.785 115.234C196.394 116.786 197.009 117.562 197.628 117.562H197.785C197.889 117.562 197.941 117.763 197.941 118.164V118.312C197.941 118.484 197.933 118.615 197.917 118.703C197.902 118.807 197.884 118.883 197.863 118.93C197.837 118.977 197.811 119 197.785 119H197.628C196.759 119 196.076 118.581 195.582 117.742C194.894 118.576 193.751 118.992 192.152 118.992ZM199.121 111.117C200.48 112.258 201.475 113.167 202.105 113.844C202.782 114.578 203.113 115.385 203.098 116.266C203.066 118.089 201.525 119 198.473 119H197.355C197.053 119 196.902 118.771 196.902 118.312V118.164C196.902 117.763 197.053 117.562 197.355 117.562H198.465C200.616 117.562 201.694 117.065 201.699 116.07C201.699 115.56 201.428 115.052 200.887 114.547C200.09 113.802 199.379 113.185 198.754 112.695C198.16 112.232 197.863 111.745 197.863 111.234C197.863 110.557 198.228 110.081 198.957 109.805L204.371 107.75V109.164L199.121 111.117ZM213.606 114.844L214.051 116.352C214.286 117.159 214.78 117.562 215.536 117.562H215.754C215.859 117.562 215.911 117.75 215.911 118.125V118.312C215.911 118.771 215.859 119 215.754 119H215.622C214.882 119 214.408 118.862 214.2 118.586C213.903 121.06 212.103 122.474 208.801 122.828L208.473 121.5C211.426 121.203 212.9 119.971 212.895 117.805C212.895 117.023 212.689 116.193 212.278 115.312L213.606 114.844ZM215.895 119H215.302C214.999 119 214.848 118.771 214.848 118.312V118.164C214.848 117.763 214.999 117.562 215.302 117.562H215.895C216.729 117.562 217.294 117.479 217.591 117.312C218.033 117.052 218.255 116.508 218.255 115.68C218.255 115.06 218.158 114.37 217.966 113.609L219.239 113.289C219.494 114.102 219.622 114.891 219.622 115.656C219.622 116.932 219.257 117.846 218.528 118.398C217.997 118.799 217.119 119 215.895 119ZM217.723 121.477L218.864 120.336L220.005 121.484L218.872 122.617L217.723 121.477ZM215.184 121.477L216.317 120.336L217.466 121.484L216.325 122.617L215.184 121.477ZM225.294 117.562C225.174 115.74 224.669 114.826 223.778 114.82C223.289 114.815 222.932 115.128 222.708 115.758C222.614 116.034 222.567 116.299 222.567 116.555C222.567 117.227 223.054 117.562 224.028 117.562C224.028 117.562 224.45 117.562 225.294 117.562ZM226.599 117.57C226.599 117.57 226.867 117.57 227.403 117.57C227.508 117.57 227.56 117.792 227.56 118.234V118.312C227.56 118.771 227.508 119 227.403 119L226.528 118.992C226.138 121.237 224.38 122.516 221.255 122.828L220.927 121.492C223.396 121.221 224.836 120.391 225.247 119C225.247 119 224.867 119 224.107 119C222.2 119 221.247 118.224 221.247 116.672C221.247 116.042 221.383 115.445 221.653 114.883C222.143 113.857 222.883 113.344 223.872 113.344C225.45 113.344 226.359 114.753 226.599 117.57ZM230.443 116.164C230.495 116.852 230.703 117.242 231.068 117.336C232.932 114.19 234.721 112.62 236.435 112.625C237.513 112.625 238.344 113.036 238.927 113.859C239.276 114.354 239.451 114.917 239.451 115.547C239.451 116.188 239.237 116.797 238.81 117.375C238.94 117.5 239.464 117.562 240.38 117.562H240.521C240.625 117.562 240.677 117.763 240.677 118.164V118.312C240.677 118.771 240.625 119 240.521 119H240.333C239.021 119 238.102 118.786 237.576 118.359C236.826 118.786 235.539 119 233.716 119H233.318C231.412 119 230.221 118.622 229.747 117.867C229.195 118.622 228.315 119 227.107 119H226.974C226.672 119 226.521 118.771 226.521 118.312V118.164C226.521 117.763 226.672 117.562 226.974 117.562H227.099C228.271 117.562 228.917 117.219 229.037 116.531C229.094 116.208 229.102 115.745 229.06 115.141L229.021 114.508L230.302 114.352L230.443 116.164ZM232.56 117.562H233.763C235.195 117.562 236.232 117.422 236.872 117.141C237.628 116.807 238.008 116.289 238.013 115.586C238.013 115.253 237.922 114.966 237.74 114.727C237.432 114.326 237 114.122 236.443 114.117C235.313 114.122 234.018 115.271 232.56 117.562ZM240.685 119H240.092C239.789 119 239.638 118.771 239.638 118.312V118.164C239.638 117.763 239.789 117.562 240.092 117.562H240.685C241.519 117.562 242.084 117.479 242.381 117.312C242.823 117.052 243.045 116.508 243.045 115.68C243.045 115.06 242.948 114.37 242.756 113.609L244.029 113.289C244.284 114.102 244.412 114.891 244.412 115.656C244.412 116.932 244.047 117.846 243.318 118.398C242.787 118.799 241.909 119 240.685 119ZM242.638 110.836L243.779 109.695L244.92 110.844L243.787 111.977L242.638 110.836ZM240.099 110.836L241.232 109.695L242.381 110.844L241.24 111.977L240.099 110.836Z" fill="white"/>
</g>
</svg>
