<svg width="127" height="70" viewBox="0 0 127 70" fill="none" xmlns="http://www.w3.org/2000/svg">
<path d="M14.1849 24.471V1.90039L1.17383 5.11476V26.7184C1.17383 33.8707 7.00084 39.6659 14.1849 39.6659H26.8576V26.7184H16.4467C15.2002 26.7184 14.1883 25.7114 14.1883 24.471H14.1849Z" fill="black" stroke="#C3FE01"/>
<path d="M32.6094 39.6659H45.6205V30.0462C45.6205 22.8938 39.7935 17.0986 32.6094 17.0986V39.6659Z" fill="black" stroke="#C3FE01"/>
<path d="M45.623 7.02548C45.623 10.6 42.7079 13.5009 39.1158 13.5009H32.6086V7.02548C32.6086 3.45099 35.5238 0.550049 39.1158 0.550049C42.7079 0.553383 45.623 3.45099 45.623 7.02548Z" fill="black" stroke="#C3FE01"/>
<path d="M89.7635 5.93522V39.6661H76.7524V21.7503C76.7524 21.1468 76.156 20.7233 75.583 20.9201C74.0115 21.4569 72.3261 21.7503 70.5702 21.7503C68.8144 21.7503 67.129 21.4602 65.5575 20.9201C64.9845 20.7233 64.388 21.1468 64.388 21.7503V39.6661H51.377V5.93522C51.377 3.91457 53.2802 2.42742 55.2538 2.91091L55.3443 2.93425C58.8995 3.82454 61.9051 6.08193 63.9323 9.11958C64.0731 9.33298 64.2272 9.53638 64.388 9.73645C65.8456 11.5304 68.0739 12.6741 70.5702 12.6741C73.0666 12.6741 75.2948 11.527 76.7524 9.73311C76.9099 9.53972 77.0607 9.33632 77.2014 9.12958C79.232 6.09194 82.2343 3.82787 85.7895 2.93758L85.89 2.91424C87.8636 2.43075 89.7669 3.9179 89.7669 5.93855L89.7635 5.93522Z" fill="black" stroke="#C3FE01"/>
<path d="M126.171 11.1067V39.6626H113.159V13.8443C113.159 12.5805 112.181 11.4835 110.911 11.4468C109.641 11.4102 108.529 12.4538 108.529 13.7509V39.666H95.5176V11.1067C95.5176 6.05511 99.6323 1.96045 104.709 1.96045H116.983C122.059 1.96045 126.174 6.05511 126.174 11.1067H126.171Z" fill="black" stroke="#C3FE01"/>
<path d="M6.27467 64.666C5.45826 64.666 4.70371 64.4619 4.011 64.0537C3.31829 63.6455 2.76783 63.0951 2.35963 62.4023C1.95143 61.7096 1.74733 60.9551 1.74733 60.1387V51.752L5.09645 50.917V60.1387C5.09645 60.4603 5.21087 60.7355 5.43971 60.9644C5.66855 61.1932 5.94687 61.3076 6.27467 61.3076L6.86842 62.9961L6.27467 64.666ZM6.05164 62.9961L6.65467 61.3076H10.3842L10.9779 63.0332L10.3842 64.666H6.65467L6.05164 62.9961ZM10.7085 64.666L10.1611 62.9868L10.7271 61.3076H10.7642C10.9744 61.3076 11.1693 61.255 11.3486 61.1499C11.528 61.0386 11.6702 60.8932 11.7754 60.7139C11.8867 60.5345 11.9424 60.3397 11.9424 60.1294V55.6021H16.4605C17.283 55.6021 18.0407 55.8062 18.7334 56.2144C19.4261 56.6164 19.9735 57.1668 20.3755 57.8657C20.7837 58.5584 20.9878 59.313 20.9878 60.1294C20.9878 60.9458 20.7837 61.7035 20.3755 62.4023C19.9735 63.0951 19.4261 63.6455 18.7334 64.0537C18.0407 64.4619 17.283 64.666 16.4605 64.666C15.9286 64.666 15.4183 64.5732 14.9297 64.3877C14.4411 64.196 14.005 63.9331 13.6216 63.5991C13.2258 63.9393 12.7835 64.2021 12.2949 64.3877C11.8125 64.5732 11.3022 64.666 10.7642 64.666H10.7085ZM16.4605 61.3076C16.6707 61.3076 16.8656 61.255 17.0449 61.1499C17.2243 61.0386 17.3665 60.8932 17.4717 60.7139C17.5768 60.5345 17.6294 60.3397 17.6294 60.1294C17.6294 59.8078 17.515 59.5356 17.2861 59.313C17.0573 59.0841 16.7821 58.9697 16.4605 58.9697H15.3008V60.1294C15.3008 60.3397 15.3534 60.5345 15.4585 60.7139C15.5636 60.8932 15.7028 61.0386 15.876 61.1499C16.0553 61.255 16.2502 61.3076 16.4605 61.3076ZM22.0825 64.666C21.5444 64.666 21.0311 64.5732 20.5425 64.3877C20.0601 64.2021 19.624 63.9393 19.2344 63.5991L18.2139 61.9014L19.1045 60.0552L20.9878 60.1387C20.9878 60.4603 21.1022 60.7355 21.3311 60.9644C21.5599 61.1932 21.8351 61.3076 22.1567 61.3076L22.6855 62.9961L22.0825 64.666ZM21.8595 62.9961L22.4625 61.3076H26.192L26.7858 63.0332L26.192 64.666H22.4625L21.8595 62.9961ZM26.5256 64.666L25.969 62.9961L26.5442 61.3076H26.572C26.7823 61.3076 26.9771 61.255 27.1565 61.1499C27.3358 61.0448 27.4781 60.9025 27.5832 60.7231C27.6946 60.5438 27.7502 60.349 27.7502 60.1387V56.5112L31.1086 55.6763V60.1387C31.1086 60.4603 31.22 60.7355 31.4426 60.9644C31.6715 61.1932 31.9467 61.3076 32.2683 61.3076L32.8713 62.9961L32.2683 64.666C31.7364 64.666 31.2261 64.5763 30.7375 64.397C30.2489 64.2114 29.8129 63.9548 29.4294 63.627C29.0336 63.9548 28.5914 64.2114 28.1028 64.397C27.6204 64.5763 27.1101 64.666 26.572 64.666H26.5256ZM29.6706 69.1099H24.3083V66.5586H29.6706V69.1099ZM32.0453 62.9961L32.6483 61.3076H36.3778L36.9715 63.0332L36.3778 64.666H32.6483L32.0453 62.9961ZM36.6929 64.666L36.1548 62.9961L36.7207 61.3076H36.7578C37.0794 61.3076 37.3515 61.1932 37.5742 60.9644C37.803 60.7355 37.9175 60.4603 37.9175 60.1387V51.752L41.2944 50.8984V60.1387C41.2944 60.9551 41.0903 61.7096 40.6821 62.4023C40.2739 63.0951 39.7204 63.6455 39.0215 64.0537C38.3288 64.4619 37.5742 64.666 36.7578 64.666H36.6929ZM50.3205 64.666C49.5041 64.666 48.7496 64.4619 48.0569 64.0537C47.3641 63.6455 46.8137 63.0951 46.4055 62.4023C45.9973 61.7096 45.7932 60.9551 45.7932 60.1387V56.5112L49.1516 55.6763V60.1387C49.1516 60.4603 49.266 60.7355 49.4948 60.9644C49.7237 61.1932 49.9989 61.3076 50.3205 61.3076H63.9582C64.1685 61.3076 64.3633 61.255 64.5427 61.1499C64.7221 61.0448 64.8643 60.9025 64.9695 60.7231C65.0746 60.5438 65.1272 60.349 65.1272 60.1387C65.1272 59.9284 65.0746 59.7367 64.9695 59.5635C64.8643 59.3841 64.7221 59.2419 64.5427 59.1367C64.3633 59.0316 64.1685 58.979 63.9582 58.979H51.2854V55.6206L59.5422 50.9448L61.2307 53.4683L57.427 55.6206H63.9582C64.7746 55.6206 65.5292 55.8247 66.2219 56.2329C66.9208 56.6349 67.4743 57.1823 67.8825 57.875C68.2907 58.5677 68.4948 59.3223 68.4948 60.1387C68.4948 60.9551 68.2907 61.7096 67.8825 62.4023C67.4743 63.0951 66.9208 63.6455 66.2219 64.0537C65.5292 64.4619 64.7746 64.666 63.9582 64.666H50.3205ZM69.6545 64.666C69.1164 64.666 68.6031 64.5732 68.1145 64.3877C67.6321 64.2021 67.196 63.9393 66.8064 63.5991L65.8322 61.9941L66.6487 60.1851L68.4948 60.1387C68.4948 60.4603 68.6062 60.7355 68.8288 60.9644C69.0577 61.1932 69.3329 61.3076 69.6545 61.3076L70.2483 62.9961L69.6545 64.666ZM54.3562 51.2139L58.3547 48.9502L58.9763 50.0728L54.9778 52.3364L54.3562 51.2139ZM69.9881 64.666L69.4315 62.9961L70.0067 61.3076H70.0345C70.2448 61.3076 70.4396 61.255 70.619 61.1499C70.7984 61.0448 70.9406 60.9025 71.0457 60.7231C71.1571 60.5438 71.2127 60.349 71.2127 60.1387V56.5112L74.5711 55.6763V60.1387C74.5711 60.4603 74.6825 60.7355 74.9051 60.9644C75.134 61.1932 75.4092 61.3076 75.7308 61.3076L76.3338 62.9961L75.7308 64.666C75.1989 64.666 74.6886 64.5763 74.2 64.397C73.7114 64.2114 73.2754 63.9548 72.8919 63.627C72.4961 63.9548 72.0539 64.2114 71.5653 64.397C71.0829 64.5763 70.5726 64.666 70.0345 64.666H69.9881ZM71.9271 51.2046H74.5433V53.7651H71.9271V51.2046ZM75.5078 62.9961L76.1015 61.3076H77.3725C77.7003 61.3076 77.9756 61.1932 78.1982 60.9644C78.4271 60.7355 78.5415 60.4603 78.5415 60.1387V56.5112L81.8906 55.6763V60.1387C81.8906 60.9551 81.6865 61.7127 81.2783 62.4116C80.8763 63.1043 80.3289 63.6548 79.6362 64.063C78.9497 64.465 78.1951 64.666 77.3725 64.666H76.1015L75.5078 62.9961ZM81.2597 69.1099H75.8974V66.5586H81.2597V69.1099ZM89.4512 61.3076H92.5406L93.1344 62.9868L92.5406 64.666H89.4234L89.4512 61.3076ZM83.922 61.3076H87.8184V60.1387C87.8184 59.8171 87.704 59.5449 87.4752 59.3223C87.2525 59.0934 86.9804 58.979 86.6588 58.979H84.024V55.6206H86.6588C87.4814 55.6206 88.2359 55.8247 88.9224 56.2329C89.6151 56.6349 90.1625 57.1823 90.5645 57.875C90.9727 58.5677 91.1768 59.3223 91.1768 60.1387V64.666H83.922V61.3076ZM92.8557 64.666L92.3176 62.9961L92.8835 61.3076H92.9206C93.2422 61.3076 93.5144 61.1932 93.737 60.9644C93.9659 60.7355 94.0803 60.4603 94.0803 60.1387V51.752L97.4572 50.8984V60.1387C97.4572 60.9551 97.2531 61.7096 96.8449 62.4023C96.4367 63.0951 95.8832 63.6455 95.1843 64.0537C94.4916 64.4619 93.737 64.666 92.9206 64.666H92.8557ZM100.073 66.9946L103.608 64.666H103.209C102.64 64.6598 102.037 64.465 101.4 64.0815C100.763 63.6919 100.228 63.1569 99.7948 62.4766C99.3618 61.79 99.1453 61.02 99.1453 60.1665C99.1453 59.3501 99.3463 58.5955 99.7484 57.9028C100.157 57.2039 100.707 56.6504 101.4 56.2422C102.092 55.834 102.847 55.6299 103.663 55.6299H108.209V65.6309L101.938 69.7964L100.073 66.9946ZM104.851 61.3076V58.9697H103.663C103.453 58.9697 103.258 59.0223 103.079 59.1274C102.906 59.2326 102.767 59.3748 102.661 59.5542C102.556 59.7336 102.504 59.9253 102.504 60.1294C102.504 60.4572 102.615 60.7355 102.838 60.9644C103.067 61.1932 103.342 61.3076 103.663 61.3076H104.851ZM107.142 61.3076H109.156L109.74 62.9961L109.156 64.666H107.142V61.3076ZM108.942 62.9961L109.545 61.3076H110.732C110.565 60.9427 110.482 60.5531 110.482 60.1387C110.482 59.7428 110.565 59.3532 110.732 58.9697H110.482V55.6206H120.576C121.392 55.6206 122.147 55.8247 122.839 56.2329C123.532 56.6349 124.079 57.1823 124.481 57.875C124.883 58.5615 125.084 59.3161 125.084 60.1387C125.084 60.9551 124.88 61.7127 124.472 62.4116C124.07 63.1043 123.523 63.6548 122.83 64.063C122.143 64.465 121.392 64.666 120.576 64.666H109.545L108.942 62.9961ZM115.018 61.3076C115.34 61.3076 115.612 61.1963 115.835 60.9736C116.064 60.7448 116.178 60.4665 116.178 60.1387C116.178 59.8171 116.064 59.5418 115.835 59.313C115.612 59.0841 115.34 58.9697 115.018 58.9697C114.808 58.9697 114.613 59.0223 114.434 59.1274C114.261 59.2326 114.122 59.3748 114.017 59.5542C113.911 59.7336 113.859 59.9284 113.859 60.1387C113.859 60.4603 113.97 60.7355 114.193 60.9644C114.422 61.1932 114.697 61.3076 115.018 61.3076ZM120.576 61.3076C120.897 61.3076 121.169 61.1932 121.392 60.9644C121.621 60.7355 121.735 60.4603 121.735 60.1387C121.735 59.9284 121.683 59.7336 121.578 59.5542C121.472 59.3748 121.33 59.2326 121.151 59.1274C120.978 59.0223 120.786 58.9697 120.576 58.9697H119.314C119.462 59.3532 119.537 59.7428 119.537 60.1387C119.537 60.5531 119.462 60.9427 119.314 61.3076H120.576Z" fill="black"/>
</svg>
