<svg width="60" height="52" viewBox="0 0 60 52" fill="none" xmlns="http://www.w3.org/2000/svg">
<path d="M59.094 13.729C58.929 18.955 59.5371 24.856 57.8941 30.66C54.2271 43.62 41.017 53.027 27.899 51.867C13.058 50.554 1.67205 39.776 0.380052 25.685C-0.356948 17.655 0.240035 9.59604 0.0630354 1.55104C0.0420354 0.586043 0.371997 0.0200411 1.424 0.0680411C8.408 0.390041 15.4351 -0.661959 22.3841 0.805041C26.3929 1.64009 30.0034 3.80132 32.6332 6.94005C35.2631 10.0788 36.7588 14.012 36.8791 18.105C36.9251 19.777 36.957 21.458 36.851 23.125C36.7222 24.9341 35.9139 26.6274 34.5882 27.8649C33.2625 29.1025 31.5176 29.7928 29.704 29.797C27.8513 29.842 26.0523 29.1721 24.6801 27.9263C23.3079 26.6806 22.4678 24.9545 22.334 23.106C22.252 21.916 22.327 20.715 22.293 19.521C22.2801 18.7184 22.0673 17.9316 21.6736 17.232C21.28 16.5324 20.718 15.942 20.0386 15.5143C19.3593 15.0867 18.5839 14.8352 17.7829 14.7828C16.9818 14.7304 16.1803 14.8786 15.451 15.214C15.2626 15.27 15.0997 15.3899 14.9902 15.5531C14.8807 15.7163 14.8315 15.9125 14.851 16.108C14.978 19.675 14.4011 23.283 15.5311 26.79C16.5542 30.0921 18.7032 32.9307 21.6038 34.8114C24.5044 36.692 27.9729 37.4955 31.4051 37.082C34.9621 36.6391 38.2361 34.9164 40.6156 32.2356C42.9952 29.5549 44.3173 26.0995 44.335 22.515C44.406 15.9 44.449 9.28102 44.294 2.66902C44.243 0.483024 44.934 -0.0399823 46.987 0.0690176C50.165 0.239018 53.363 0.21603 56.544 0.0750296C58.468 -0.0109704 59.238 0.483036 59.138 2.56304C58.971 6.06004 59.094 9.57302 59.094 13.729Z" fill="#FFFFF2"/>
</svg>
