<svg width="918" height="919" viewBox="0 0 918 919" fill="none" xmlns="http://www.w3.org/2000/svg">
<path fill-rule="evenodd" clip-rule="evenodd" d="M456.369 799.228V912.901C332.938 912.199 221.201 862.132 139.899 781.442L220.44 700.901C281.112 761.047 364.374 798.442 456.369 799.228ZM224.683 696.658C284.269 755.718 366.031 792.442 456.369 793.228V666.892C400.964 666.195 350.829 643.519 314.199 607.142L224.683 696.658ZM310.003 602.853L220.46 692.396C162.005 632.346 126 550.332 126 459.908L253 459.908C253 515.346 274.688 565.694 310.003 602.853ZM318.442 602.899C353.99 638.193 402.629 660.195 456.369 660.891L456.369 464.972L318.442 602.899ZM452.948 459.908L314.247 598.609C280.02 562.541 259 513.697 259 459.908H452.948ZM467.433 453.908H658.913C657.386 401.575 635.959 354.271 601.979 319.362L467.433 453.908ZM597.73 315.126L462.369 450.487V258.936C514.902 259.808 562.517 281.039 597.73 315.126ZM606.222 315.119C641.289 351.118 663.386 399.926 664.915 453.908H792.607C791.034 364.776 754.476 284.178 696.08 225.261L606.222 315.119ZM691.818 221.038L601.974 310.882C565.677 275.713 516.566 253.809 462.369 252.935V126.59C551.591 127.387 632.441 163.237 691.818 221.038ZM700.322 221.019C759.804 281.022 797.034 363.119 798.608 453.908H911.961C910.376 331.814 860.489 221.369 780.534 140.808L700.322 221.019ZM776.279 136.577L696.061 216.795C635.598 157.909 553.247 121.387 462.369 120.59V6.92047C584.589 7.81072 695.297 57.1015 776.279 136.577ZM216.217 696.639L135.669 777.187C55.4636 695.462 6 583.461 6 459.908L120 459.908C120 551.989 156.676 635.503 216.217 696.639ZM253.085 453.908H126.053C127.634 364.327 164.554 283.366 223.465 224.372L312.984 313.892C277.218 350.005 254.631 399.31 253.085 453.908ZM120.052 453.908C121.634 362.67 159.225 280.209 219.222 220.13L138.681 139.589C58.0165 220.253 7.63182 331.197 6.03892 453.908H120.052ZM142.951 135.374L223.499 215.921C283.895 157.531 365.91 121.362 456.369 120.589V6.91568C334.475 7.60887 223.986 56.4449 142.951 135.374ZM317.267 309.69L227.742 220.165C287.052 162.86 367.567 127.362 456.369 126.589V252.925C402.496 253.602 353.604 275.06 317.267 309.69ZM259.087 453.908C260.632 400.959 282.548 353.157 317.227 318.134L453.001 453.908H259.087ZM321.511 313.934L456.369 448.792V258.925C404.16 259.602 356.765 280.387 321.511 313.934ZM462.369 660.88L462.369 463.277L600.774 601.682C565.285 637.524 516.431 659.983 462.369 660.88ZM467.486 459.908L604.932 597.355C638.463 561.413 659 513.077 659 459.908H467.486ZM462.369 666.881C518.096 665.983 568.446 642.85 605.017 605.924L694.866 695.774C635.223 755.334 553.127 792.416 462.369 793.227V666.881ZM609.177 601.6L699.074 691.496C757.014 631.527 792.66 549.881 792.66 459.908L665 459.908C665 514.726 643.795 564.567 609.177 601.6ZM462.369 799.227C554.784 798.416 638.38 760.663 699.109 700.016L779.32 780.227C698.079 861.468 586.125 911.995 462.369 912.896V799.227ZM703.317 695.739L783.534 775.957C863.031 694.339 912 582.842 912 459.908L798.66 459.908C798.66 551.538 762.342 634.684 703.317 695.739ZM918 459.908C918 584.499 868.359 697.496 787.777 780.2L787.805 780.228L783.562 784.47C701.236 866.796 587.782 917.995 462.369 918.896V918.908H459H456.369V918.901C204.081 917.485 0 712.529 0 459.908V453.908H0.038413C1.63427 329.338 52.8541 216.731 134.837 134.948L138.681 131.104L138.708 131.131C220.829 51.1164 332.819 1.609 456.369 0.915584V0.908203H459H462.369V0.92031C712.317 2.71713 914.764 204.295 917.962 453.908H918V459.908Z" fill="#1D1D1D"/>
</svg>
