<svg width="625" height="694" viewBox="0 0 625 694" fill="none" xmlns="http://www.w3.org/2000/svg">
<g clip-path="url(#clip0_543_1084)">
<path fill-rule="evenodd" clip-rule="evenodd" d="M309.519 594.228V707.901C186.087 707.199 74.3504 657.132 -6.95114 576.442L73.5898 495.901C134.261 556.047 217.523 593.442 309.519 594.228ZM77.8325 491.658C137.418 550.718 219.18 587.442 309.519 588.228V461.892C254.114 461.195 203.978 438.519 167.349 402.142L77.8325 491.658ZM163.153 397.853L73.6091 487.396C15.1541 427.346 -20.8506 345.332 -20.8506 254.908L106.149 254.908C106.149 310.346 127.837 360.694 163.153 397.853ZM171.592 397.899C207.139 433.193 255.779 455.195 309.519 455.891L309.519 259.972L171.592 397.899ZM306.097 254.908L167.397 393.609C133.169 357.541 112.149 308.697 112.149 254.908H306.097ZM320.582 248.908H512.062C510.536 196.575 489.108 149.271 455.128 114.362L320.582 248.908ZM450.88 110.126L315.519 245.487V53.9362C368.051 54.8083 415.666 76.0395 450.88 110.126ZM459.371 110.119C494.439 146.118 516.535 194.926 518.065 248.908H645.756C644.183 159.776 607.625 79.1783 549.229 20.2615L459.371 110.119ZM544.967 16.0379L455.123 105.882C418.827 70.7133 369.715 48.8086 315.519 47.9353V-78.4103C404.74 -77.6134 485.591 -41.7627 544.967 16.0379ZM553.472 16.0188C612.954 76.0216 650.183 158.119 651.757 248.908H765.11C763.526 126.814 713.638 16.3688 633.683 -64.1923L553.472 16.0188ZM629.428 -68.4231L549.21 11.7949C488.747 -47.0912 406.397 -83.6132 315.519 -84.4105V-198.08C437.738 -197.189 548.447 -147.899 629.428 -68.4231ZM69.366 491.639L-11.1819 572.187C-91.387 490.462 -140.851 378.461 -140.851 254.908L-26.8506 254.908C-26.8506 346.989 9.82542 430.503 69.366 491.639ZM106.234 248.908H-20.7977C-19.2164 159.327 17.703 78.3662 76.6141 19.3724L166.133 108.892C130.367 145.005 107.781 194.31 106.234 248.908ZM-26.7986 248.908C-25.2167 157.67 12.3745 75.2094 72.3715 15.1297L-8.16969 -65.4115C-88.8341 15.2528 -139.219 126.197 -140.812 248.908H-26.7986ZM-3.89911 -69.6262L76.6485 10.9215C137.045 -47.469 219.06 -83.638 309.519 -84.4112V-198.084C187.625 -197.391 77.1356 -148.555 -3.89911 -69.6262ZM170.417 104.69L80.8918 15.1647C140.202 -42.1405 220.716 -77.6383 309.519 -78.4109V47.9247C255.645 48.6023 206.754 70.0604 170.417 104.69ZM112.237 248.908C113.781 195.959 135.698 148.157 170.376 113.134L306.15 248.908H112.237ZM174.661 108.934L309.519 243.792V53.9252C257.309 54.6018 209.914 75.387 174.661 108.934ZM315.519 455.88L315.519 258.277L453.923 396.682C418.434 432.524 369.58 454.983 315.519 455.88ZM320.635 254.908L458.082 392.355C491.612 356.413 512.149 308.077 512.149 254.908H320.635ZM315.519 461.881C371.245 460.983 421.595 437.85 458.166 400.924L548.015 490.774C488.372 550.334 406.276 587.416 315.519 588.227V461.881ZM462.327 396.6L552.223 486.496C610.163 426.527 645.809 344.881 645.809 254.908L518.149 254.908C518.149 309.726 496.944 359.567 462.327 396.6ZM315.519 594.227C407.933 593.416 491.529 555.663 552.258 495.016L632.469 575.227C551.229 656.468 439.275 706.995 315.519 707.896V594.227ZM556.466 490.739L636.684 570.957C716.18 489.339 765.149 377.842 765.149 254.908L651.809 254.908C651.809 346.538 615.492 429.684 556.466 490.739ZM771.149 254.908C771.149 379.499 721.509 492.496 640.927 575.2L640.955 575.228L636.712 579.47C554.386 661.796 440.932 712.995 315.519 713.896V713.908H312.149H309.519V713.901C57.2304 712.485 -146.851 507.529 -146.851 254.908V248.908H-146.812C-145.216 124.338 -93.9965 11.7307 -12.0137 -70.0523L-8.16943 -73.8965L-8.14212 -73.8692C73.9788 -153.884 185.968 -203.391 309.519 -204.084V-204.092H312.149H315.519V-204.08C565.467 -202.283 767.913 -0.70462 771.111 248.908H771.149V254.908Z" fill="#1D1D1D"/>
</g>
<defs>
<clipPath id="clip0_543_1084">
<rect width="624" height="694" fill="white" transform="translate(0.149414)"/>
</clipPath>
</defs>
</svg>
