<svg width="24" height="24" viewBox="0 0 24 24" fill="none" xmlns="http://www.w3.org/2000/svg">
<path fill-rule="evenodd" clip-rule="evenodd" d="M11.7604 12.1333C10.3578 12.1333 9.21641 10.9918 9.21641 9.58923C9.21641 8.18667 10.3578 7.04523 11.7604 7.04523C13.1629 7.04523 14.3044 8.18667 14.3044 9.58923C14.3044 10.9918 13.1629 12.1333 11.7604 12.1333ZM16.9741 4.08747C15.5524 2.62059 13.7005 1.81323 11.7594 1.81323C9.8183 1.81323 7.96553 2.62155 6.54281 4.08939C5.09897 5.57835 4.30601 7.57899 4.36841 9.57771C4.46825 12.788 6.63977 15.1313 8.55593 17.1982C10.018 18.7745 11.2794 20.1358 11.2794 21.4933H12.2394C12.2394 20.0936 13.5037 18.7496 14.9668 17.1925C16.881 15.1563 19.0516 12.8485 19.1514 9.57771C19.2129 7.57803 18.4189 5.57643 16.9741 4.08747Z" fill="white"/>
</svg>
