<svg width="86" height="28" viewBox="0 0 86 28" fill="none" xmlns="http://www.w3.org/2000/svg">
<path d="M9.29152 17.1183V0.986572L-0.0078125 3.28396V18.7246C-0.0078125 23.8365 4.15689 27.9785 9.29152 27.9785H18.349V18.7246H10.9081C10.0172 18.7246 9.29392 18.0049 9.29392 17.1183H9.29152Z" fill="#F8F8F7"/>
<path d="M21.3496 27.9785H30.6489V21.103C30.6489 15.9911 26.4842 11.8491 21.3496 11.8491V27.9785Z" fill="#F8F8F7"/>
<path d="M30.6504 4.64962C30.6504 7.20439 28.5668 9.27776 25.9995 9.27776H21.3487V4.64962C21.3487 2.09485 23.4322 0.0214844 25.9995 0.0214844C28.5668 0.0238676 30.6504 2.09485 30.6504 4.64962Z" fill="#C3FE01"/>
<path d="M61.0862 3.87023V27.9785H51.7868V15.1737C51.7868 14.7423 51.3606 14.4396 50.951 14.5803C49.8278 14.9639 48.6232 15.1737 47.3683 15.1737C46.1134 15.1737 44.9087 14.9663 43.7855 14.5803C43.376 14.4396 42.9497 14.7423 42.9497 15.1737V27.9785H33.6504V3.87023C33.6504 2.42603 35.0107 1.36313 36.4213 1.70869L36.4859 1.72537C39.0269 2.36168 41.1751 3.9751 42.624 6.14617C42.7246 6.2987 42.8348 6.44407 42.9497 6.58706C43.9915 7.86921 45.5841 8.68665 47.3683 8.68665C49.1525 8.68665 50.7451 7.86683 51.7868 6.58468C51.8994 6.44646 52.0072 6.30108 52.1078 6.15332C53.5591 3.98224 55.7049 2.36406 58.2458 1.72775L58.3177 1.71107C59.7283 1.36551 61.0886 2.42841 61.0886 3.87262L61.0862 3.87023Z" fill="#F8F8F7"/>
<path d="M85.9982 7.56661V27.9762H76.6989V9.5232C76.6989 8.61997 75.9996 7.83591 75.0919 7.80969C74.1843 7.78348 73.3892 8.52941 73.3892 9.45647V27.9786H64.0898V7.56661C64.0898 3.95609 67.0308 1.02954 70.659 1.02954H79.4315C83.0597 1.02954 86.0006 3.95609 86.0006 7.56661H85.9982Z" fill="#F8F8F7"/>
</svg>
