<svg width="20" height="20" viewBox="0 0 20 20" fill="none" xmlns="http://www.w3.org/2000/svg">
<path d="M14.1113 2.49756C15.2288 2.49756 16.3038 2.93923 17.0946 3.73173C17.8863 4.52256 18.3288 5.58923 18.3288 6.70589V13.2892C18.3288 15.6142 16.4371 17.4976 14.1113 17.4976H5.87878C3.55294 17.4976 1.66211 15.6142 1.66211 13.2892V6.70589C1.66211 4.38089 3.54461 2.49756 5.87878 2.49756H14.1113ZM15.0538 6.83089C14.8788 6.82172 14.7121 6.88089 14.5863 6.99756L10.8288 9.99756C10.3454 10.3984 9.65294 10.3984 9.16211 9.99756L5.41211 6.99756C5.15294 6.80589 4.79461 6.83089 4.57878 7.05589C4.35378 7.28089 4.32878 7.63923 4.51961 7.88923L4.62878 7.99756L8.42044 10.9559C8.88711 11.3226 9.45294 11.5226 10.0454 11.5226C10.6363 11.5226 11.2121 11.3226 11.6779 10.9559L15.4371 7.94756L15.5038 7.88089C15.7029 7.63923 15.7029 7.28923 15.4946 7.04756C15.3788 6.92339 15.2196 6.84756 15.0538 6.83089Z" fill="white"/>
</svg>
