<svg width="60" height="60" viewBox="0 0 60 60" fill="none" xmlns="http://www.w3.org/2000/svg">
<path d="M52.8209 17.2519L52.8098 9.43213L38.3796 0V6.03239L47.8977 12.2994L47.9051 17.103L43.4835 20.0968L40.4669 17.8961V14.1687L35.5511 10.8062V17.5908L27.7588 22.372L27.7441 35.0028L22.2345 38.1046L19.406 35.889V32.2324L22.7545 29.9386V29.9088V24.2487L16.7287 28.2815L12.1227 25.2839L7.91493 28.0395L14.4902 32.5414V35.3044L9.75144 38.5105L4.91677 35.2374V24.3455L12.0932 19.4861L12.1005 14.8129L21.3052 20.741L29.0422 15.5911L24.3255 12.8393L21.2388 14.9209L14.516 10.4748L22.0981 6.05473L28.666 9.90504V4.1631L22.1055 0.316506L7.19213 9.01135L7.18106 16.8349L0.000976562 21.698V37.8849L7.18106 42.7481L7.19213 50.5716L21.6224 60V53.9713L12.1042 47.7043L12.0969 42.9008L16.5185 39.9069L19.5351 42.1076V45.835L24.4509 49.1975V42.413L32.3538 37.6317L32.4423 25.0009L37.7674 21.8991L40.5959 24.1147V27.7714L37.2474 30.0652V30.0949V35.755L43.2733 31.7222L47.8793 34.7198L52.087 31.9643L45.5117 27.4586V24.6993L50.2505 21.4932L55.0852 24.7663V35.6582L47.9088 40.5176L47.9014 45.1908L38.6967 39.259L30.9598 44.3753L35.6765 47.1234L38.7631 45.0828L45.4859 49.529L37.9039 53.949L31.336 50.0987V55.8369L37.8965 59.6835L52.8098 50.9924L52.8209 43.1689L60.001 38.3057V22.1151L52.8209 17.2519Z" fill="white"/>
</svg>
