<svg width="24" height="24" viewBox="0 0 24 24" fill="none" xmlns="http://www.w3.org/2000/svg">
<path fill-rule="evenodd" clip-rule="evenodd" d="M19.4784 19.0952C18.503 16.0107 15.8822 14.2433 12.2851 14.2433H12.2592C8.65253 14.2232 6.01829 16.003 5.04101 19.0952L4.92773 19.4542L5.24837 19.6501C7.12805 20.7963 9.47237 21.3771 12.2141 21.3771C12.2448 21.3771 12.2755 21.3771 12.3053 21.3771C15.0854 21.3771 17.3645 20.8117 19.271 19.6501L19.5917 19.4542L19.4784 19.0952Z" fill="white"/>
<path fill-rule="evenodd" clip-rule="evenodd" d="M12.26 12.1045C14.8741 12.1045 17.0015 9.97808 17.0015 7.364C17.0015 4.74896 14.8741 2.62256 12.26 2.62256C9.64593 2.62256 7.51953 4.74896 7.51953 7.364C7.51953 9.97808 9.64593 12.1045 12.26 12.1045Z" fill="white"/>
</svg>
