<svg width="76" height="84" viewBox="0 0 76 84" fill="none" xmlns="http://www.w3.org/2000/svg">
<path d="M8.46477 37.5396C12.9158 23.8647 25.4185 14.2065 40.9793 7.63606C42.9112 6.82029 44.9673 6.66205 45.7485 9.06305C46.5297 11.4641 44.6257 12.307 42.7645 13.1293C32.3317 17.7516 23.0027 23.7598 16.8922 33.8066C10.699 43.9959 10.6014 53.9964 16.7111 61.1422C23.5625 69.1596 37.3828 72.9249 46.8139 69.4215C53.3833 66.9816 57.6077 62.6017 58.8997 55.5778C60.5369 46.6897 60.2849 37.9828 56.4067 29.649C53.9822 24.4442 49.9373 22.8562 44.5984 24.9114C37.8344 27.4528 32.0043 31.9932 27.8837 37.9289C24.0113 43.4673 24.8249 50.1175 29.5239 54.1325C31.8464 56.1853 34.8316 57.3312 37.9311 57.3595C41.0306 57.3878 44.0363 56.2966 46.3958 54.2865C47.9999 52.9367 49.4803 50.5029 51.673 52.9177C53.8923 55.3645 51.6122 57.3945 50.0904 59.0749C45.4149 64.2491 35.7143 64.9296 28.8551 60.7354C20.9006 55.8729 17.2608 47.2097 20.7737 39.2611C25.7208 28.0774 34.6969 21.1257 46.5875 18.5432C53.5439 17.0311 59.7369 21.285 62.6425 28.8632C65.75 36.9427 66.6375 45.7069 65.2127 54.2453C62.6779 69.8293 50.6363 78.2651 33.9925 76.5561C14.8445 74.5799 2.90329 58.3803 8.46477 37.5396Z" fill="#F7F7F6" stroke="#F7F7F6"/>
</svg>
