<svg width="100%" height="100%" viewBox="0 0 624 694" fill="none" xmlns="http://www.w3.org/2000/svg">
<g clip-path="url(#clip0_56_2294)">
<rect width="624" height="694" fill="black"/>
<circle cx="312" cy="255" r="456" stroke="#1D1D1D" stroke-width="6"/>
<path d="M515 255C515 367.68 424.1 459 312 459C199.9 459 109 367.68 109 255C109 142.32 199.9 51 312 51C424.1 51 515 142.32 515 255Z" stroke="#1D1D1D" stroke-width="6"/>
<path d="M648.66 255C648.66 440.751 498.08 591.332 312.33 591.332C126.58 591.332 -24 440.751 -24 255C-24 69.2489 126.58 -81.3322 312.33 -81.3322C498.08 -81.3322 648.66 69.2489 648.66 255Z" stroke="#1D1D1D" stroke-width="6"/>
<line x1="312.369" y1="-204" x2="312.369" y2="714" stroke="#1D1D1D" stroke-width="6"/>
<line x1="-147" y1="252" x2="771" y2="252" stroke="#1D1D1D" stroke-width="6"/>
<line x1="-10.4402" y1="-71.6835" x2="638.684" y2="577.441" stroke="#1D1D1D" stroke-width="6"/>
<line x1="-7.40355" y1="577.441" x2="641.72" y2="-71.6831" stroke="#1D1D1D" stroke-width="6"/>
<rect x="449" y="22" width="138" height="138" rx="24" fill="#20211D"/>
<path d="M559.291 88.4576L549 76.6483L537.298 87.0019L544.398 88.5838C541.326 95.1805 532.645 99.9358 522.414 99.9358C509.616 99.9358 499.241 92.4944 499.241 83.315V76.667L494.694 77.523C489.653 78.4726 486 82.8919 486 88.0426V106.584H492.621V83.3158C492.621 96.1667 505.96 106.584 522.414 106.584C536.285 106.584 547.941 99.1807 551.261 89.1582L559.291 88.4576Z" fill="white"/>
<rect x="34" y="31" width="138" height="138" rx="24" fill="#20211D"/>
<path d="M125.82 87.2519L125.809 79.4321L111.379 70V76.0324L120.897 82.2994L120.904 87.103L116.482 90.0968L113.466 87.8961V84.1687L108.55 80.8062V87.5908L100.758 92.372L100.743 105.003L95.2336 108.105L92.405 105.889V102.232L95.7535 99.9386V99.9088V94.2487L89.7277 98.2815L85.1217 95.2839L80.9139 98.0395L87.4892 102.541V105.304L82.7505 108.511L77.9158 105.237V94.3455L85.0922 89.4861L85.0996 84.8129L94.3042 90.741L102.041 85.5911L97.3245 82.8393L94.2379 84.9209L87.5151 80.4748L95.0971 76.0547L101.665 79.905V74.1631L95.1045 70.3165L80.1911 79.0114L80.1801 86.8349L73 91.698V107.885L80.1801 112.748L80.1911 120.572L94.6214 130V123.971L85.1032 117.704L85.0959 112.901L89.5175 109.907L92.5341 112.108V115.835L97.4499 119.198V112.413L105.353 107.632L105.441 95.0009L110.766 91.8991L113.595 94.1147V97.7714L110.246 100.065V100.095V105.755L116.272 101.722L120.878 104.72L125.086 101.964L118.511 97.4586V94.6993L123.25 91.4932L128.084 94.7663V105.658L120.908 110.518L120.9 115.191L111.696 109.259L103.959 114.375L108.675 117.123L111.762 115.083L118.485 119.529L110.903 123.949L104.335 120.099V125.837L110.896 129.683L125.809 120.992L125.82 113.169L133 108.306V92.1151L125.82 87.2519Z" fill="white"/>
<rect x="106" y="430" width="138" height="138" rx="24" fill="#20211D"/>
<path d="M204.093 486.729C203.928 491.955 204.536 497.856 202.893 503.66C199.226 516.62 186.016 526.027 172.898 524.867C158.057 523.554 146.671 512.776 145.379 498.685C144.642 490.655 145.239 482.596 145.062 474.551C145.041 473.586 145.371 473.02 146.423 473.068C153.407 473.39 160.434 472.338 167.383 473.805C171.392 474.64 175.002 476.801 177.632 479.94C180.262 483.079 181.758 487.012 181.878 491.105C181.924 492.777 181.956 494.458 181.85 496.125C181.721 497.934 180.913 499.627 179.587 500.865C178.262 502.103 176.517 502.793 174.703 502.797C172.85 502.842 171.051 502.172 169.679 500.926C168.307 499.681 167.467 497.955 167.333 496.106C167.251 494.916 167.326 493.715 167.292 492.521C167.279 491.718 167.066 490.932 166.673 490.232C166.279 489.532 165.717 488.942 165.038 488.514C164.358 488.087 163.583 487.835 162.782 487.783C161.981 487.73 161.179 487.879 160.45 488.214C160.262 488.27 160.099 488.39 159.989 488.553C159.88 488.716 159.83 488.912 159.85 489.108C159.977 492.675 159.4 496.283 160.53 499.79C161.553 503.092 163.702 505.931 166.603 507.811C169.503 509.692 172.972 510.496 176.404 510.082C179.961 509.639 183.235 507.916 185.615 505.236C187.994 502.555 189.316 499.099 189.334 495.515C189.405 488.9 189.448 482.281 189.293 475.669C189.242 473.483 189.933 472.96 191.986 473.069C195.164 473.239 198.362 473.216 201.543 473.075C203.467 472.989 204.237 473.483 204.137 475.563C203.97 479.06 204.093 482.573 204.093 486.729Z" fill="#FFFFF2"/>
<rect x="388" y="483" width="138" height="138" rx="24" fill="#20211D"/>
<path d="M427.464 547.54C431.915 533.865 444.418 524.206 459.978 517.636C461.91 516.82 463.966 516.662 464.748 519.063C465.529 521.464 463.625 522.307 461.764 523.129C451.331 527.751 442.002 533.76 435.891 543.807C429.698 553.996 429.6 563.996 435.71 571.142C442.561 579.16 456.382 582.925 465.813 579.421C472.382 576.982 476.607 572.602 477.899 565.578C479.536 556.69 479.284 547.983 475.406 539.649C472.981 534.444 468.936 532.856 463.597 534.911C456.833 537.453 451.003 541.993 446.883 547.929C443.01 553.467 443.824 560.117 448.523 564.132C450.845 566.185 453.831 567.331 456.93 567.359C460.03 567.388 463.035 566.297 465.395 564.286C466.999 562.937 468.479 560.503 470.672 562.918C472.891 565.364 470.611 567.394 469.089 569.075C464.414 574.249 454.713 574.93 447.854 570.735C439.9 565.873 436.26 557.21 439.773 549.261C444.72 538.077 453.696 531.126 465.587 528.543C472.543 527.031 478.736 531.285 481.642 538.863C484.749 546.943 485.637 555.707 484.212 564.245C481.677 579.829 469.635 588.265 452.992 586.556C433.844 584.58 421.902 568.38 427.464 547.54Z" fill="#F7F7F6" stroke="#F7F7F6"/>
<g filter="url(#filter0_d_56_2294)">
<path d="M203.553 255.164C203.553 195.347 252.193 146.553 312.009 146.553C371.826 146.553 420.466 195.193 420.466 255.01C420.466 314.826 371.672 363.466 311.855 363.466C252.208 363.466 203.553 314.811 203.553 255.164Z" fill="#C3FE01"/>
</g>
<path d="M263.184 246.863V224.292L250.173 227.507V249.111C250.173 256.263 256 262.058 263.184 262.058H275.857V249.111H265.446C264.199 249.111 263.187 248.104 263.187 246.863H263.184Z" fill="black" stroke="#C3FE01"/>
<path d="M281.608 262.058H294.619V252.438C294.619 245.286 288.792 239.491 281.608 239.491V262.058Z" fill="black" stroke="#C3FE01"/>
<path d="M294.623 229.417C294.623 232.992 291.708 235.893 288.116 235.893H281.609V229.417C281.609 225.843 284.524 222.942 288.116 222.942C291.708 222.945 294.623 225.843 294.623 229.417Z" fill="black" stroke="#C3FE01"/>
<path d="M338.762 228.327V262.058H325.75V244.142C325.75 243.539 325.154 243.115 324.581 243.312C323.01 243.849 321.324 244.142 319.568 244.142C317.812 244.142 316.127 243.852 314.556 243.312C313.983 243.115 313.386 243.539 313.386 244.142V262.058H300.375V228.327C300.375 226.306 302.278 224.819 304.252 225.303L304.342 225.326C307.898 226.216 310.903 228.474 312.93 231.511C313.071 231.725 313.225 231.928 313.386 232.128C314.844 233.922 317.072 235.066 319.568 235.066C322.065 235.066 324.293 233.919 325.75 232.125C325.908 231.932 326.059 231.728 326.199 231.521C328.23 228.484 331.232 226.22 334.788 225.329L334.888 225.306C336.862 224.823 338.765 226.31 338.765 228.33L338.762 228.327Z" fill="black" stroke="#C3FE01"/>
<path d="M375.17 233.499V262.055H362.158V236.236C362.158 234.973 361.18 233.875 359.91 233.839C358.64 233.802 357.528 234.846 357.528 236.143V262.058H344.517V233.499C344.517 228.447 348.631 224.352 353.708 224.352H365.982C371.058 224.352 375.173 228.447 375.173 233.499H375.17Z" fill="black" stroke="#C3FE01"/>
<path d="M255.275 287.058C254.458 287.058 253.704 286.854 253.011 286.446C252.318 286.037 251.768 285.487 251.36 284.794C250.951 284.102 250.747 283.347 250.747 282.531V274.144L254.096 273.309V282.531C254.096 282.852 254.211 283.127 254.44 283.356C254.669 283.585 254.947 283.7 255.275 283.7L255.868 285.388L255.275 287.058ZM255.052 285.388L255.655 283.7H259.384L259.978 285.425L259.384 287.058H255.655L255.052 285.388ZM259.708 287.058L259.161 285.379L259.727 283.7H259.764C259.974 283.7 260.169 283.647 260.349 283.542C260.528 283.431 260.67 283.285 260.775 283.106C260.887 282.926 260.942 282.732 260.942 282.521V277.994H265.46C266.283 277.994 267.041 278.198 267.733 278.606C268.426 279.008 268.973 279.559 269.375 280.258C269.784 280.95 269.988 281.705 269.988 282.521C269.988 283.338 269.784 284.095 269.375 284.794C268.973 285.487 268.426 286.037 267.733 286.446C267.041 286.854 266.283 287.058 265.46 287.058C264.929 287.058 264.418 286.965 263.93 286.78C263.441 286.588 263.005 286.325 262.622 285.991C262.226 286.331 261.784 286.594 261.295 286.78C260.813 286.965 260.302 287.058 259.764 287.058H259.708ZM265.46 283.7C265.671 283.7 265.866 283.647 266.045 283.542C266.224 283.431 266.367 283.285 266.472 283.106C266.577 282.926 266.629 282.732 266.629 282.521C266.629 282.2 266.515 281.928 266.286 281.705C266.057 281.476 265.782 281.362 265.46 281.362H264.301V282.521C264.301 282.732 264.353 282.926 264.458 283.106C264.564 283.285 264.703 283.431 264.876 283.542C265.055 283.647 265.25 283.7 265.46 283.7ZM271.083 287.058C270.544 287.058 270.031 286.965 269.542 286.78C269.06 286.594 268.624 286.331 268.234 285.991L267.214 284.293L268.104 282.447L269.988 282.531C269.988 282.852 270.102 283.127 270.331 283.356C270.56 283.585 270.835 283.7 271.157 283.7L271.686 285.388L271.083 287.058ZM270.859 285.388L271.463 283.7H275.192L275.786 285.425L275.192 287.058H271.463L270.859 285.388ZM275.526 287.058L274.969 285.388L275.544 283.7H275.572C275.782 283.7 275.977 283.647 276.156 283.542C276.336 283.437 276.478 283.294 276.583 283.115C276.695 282.936 276.75 282.741 276.75 282.531V278.903L280.109 278.068V282.531C280.109 282.852 280.22 283.127 280.443 283.356C280.671 283.585 280.947 283.7 281.268 283.7L281.871 285.388L281.268 287.058C280.736 287.058 280.226 286.968 279.738 286.789C279.249 286.603 278.813 286.347 278.429 286.019C278.034 286.347 277.591 286.603 277.103 286.789C276.62 286.968 276.11 287.058 275.572 287.058H275.526ZM278.671 291.502H273.308V288.951H278.671V291.502ZM281.045 285.388L281.648 283.7H285.378L285.972 285.425L285.378 287.058H281.648L281.045 285.388ZM285.693 287.058L285.155 285.388L285.721 283.7H285.758C286.079 283.7 286.352 283.585 286.574 283.356C286.803 283.127 286.917 282.852 286.917 282.531V274.144L290.294 273.29V282.531C290.294 283.347 290.09 284.102 289.682 284.794C289.274 285.487 288.72 286.037 288.021 286.446C287.329 286.854 286.574 287.058 285.758 287.058H285.693ZM299.321 287.058C298.504 287.058 297.75 286.854 297.057 286.446C296.364 286.037 295.814 285.487 295.405 284.794C294.997 284.102 294.793 283.347 294.793 282.531V278.903L298.152 278.068V282.531C298.152 282.852 298.266 283.127 298.495 283.356C298.724 283.585 298.999 283.7 299.321 283.7H312.958C313.169 283.7 313.363 283.647 313.543 283.542C313.722 283.437 313.864 283.294 313.969 283.115C314.075 282.936 314.127 282.741 314.127 282.531C314.127 282.32 314.075 282.129 313.969 281.955C313.864 281.776 313.722 281.634 313.543 281.529C313.363 281.424 313.169 281.371 312.958 281.371H300.285V278.013L308.542 273.337L310.231 275.86L306.427 278.013H312.958C313.775 278.013 314.529 278.217 315.222 278.625C315.921 279.027 316.474 279.574 316.883 280.267C317.291 280.96 317.495 281.714 317.495 282.531C317.495 283.347 317.291 284.102 316.883 284.794C316.474 285.487 315.921 286.037 315.222 286.446C314.529 286.854 313.775 287.058 312.958 287.058H299.321ZM318.655 287.058C318.116 287.058 317.603 286.965 317.114 286.78C316.632 286.594 316.196 286.331 315.806 285.991L314.832 284.386L315.649 282.577L317.495 282.531C317.495 282.852 317.606 283.127 317.829 283.356C318.058 283.585 318.333 283.7 318.655 283.7L319.248 285.388L318.655 287.058ZM303.356 273.606L307.355 271.342L307.976 272.465L303.978 274.728L303.356 273.606ZM318.988 287.058L318.431 285.388L319.007 283.7H319.035C319.245 283.7 319.44 283.647 319.619 283.542C319.798 283.437 319.941 283.294 320.046 283.115C320.157 282.936 320.213 282.741 320.213 282.531V278.903L323.571 278.068V282.531C323.571 282.852 323.682 283.127 323.905 283.356C324.134 283.585 324.409 283.7 324.731 283.7L325.334 285.388L324.731 287.058C324.199 287.058 323.689 286.968 323.2 286.789C322.711 286.603 322.275 286.347 321.892 286.019C321.496 286.347 321.054 286.603 320.565 286.789C320.083 286.968 319.573 287.058 319.035 287.058H318.988ZM320.927 273.597H323.543V276.157H320.927V273.597ZM324.508 285.388L325.102 283.7H326.373C326.7 283.7 326.976 283.585 327.198 283.356C327.427 283.127 327.541 282.852 327.541 282.531V278.903L330.891 278.068V282.531C330.891 283.347 330.686 284.105 330.278 284.804C329.876 285.496 329.329 286.047 328.636 286.455C327.95 286.857 327.195 287.058 326.373 287.058H325.102L324.508 285.388ZM330.26 291.502H324.897V288.951H330.26V291.502ZM338.451 283.7H341.541L342.134 285.379L341.541 287.058H338.423L338.451 283.7ZM332.922 283.7H336.818V282.531C336.818 282.209 336.704 281.937 336.475 281.714C336.253 281.485 335.98 281.371 335.659 281.371H333.024V278.013H335.659C336.481 278.013 337.236 278.217 337.922 278.625C338.615 279.027 339.163 279.574 339.565 280.267C339.973 280.96 340.177 281.714 340.177 282.531V287.058H332.922V283.7ZM341.856 287.058L341.318 285.388L341.883 283.7H341.921C342.242 283.7 342.514 283.585 342.737 283.356C342.966 283.127 343.08 282.852 343.08 282.531V274.144L346.457 273.29V282.531C346.457 283.347 346.253 284.102 345.845 284.794C345.437 285.487 344.883 286.037 344.184 286.446C343.492 286.854 342.737 287.058 341.921 287.058H341.856ZM349.073 289.387L352.608 287.058H352.209C351.64 287.052 351.037 286.857 350.4 286.474C349.763 286.084 349.228 285.549 348.795 284.869C348.362 284.182 348.145 283.412 348.145 282.558C348.145 281.742 348.346 280.988 348.748 280.295C349.157 279.596 349.707 279.042 350.4 278.634C351.092 278.226 351.847 278.022 352.663 278.022H357.209V288.023L350.938 292.188L349.073 289.387ZM353.851 283.7V281.362H352.663C352.453 281.362 352.258 281.414 352.079 281.519C351.906 281.625 351.767 281.767 351.661 281.946C351.556 282.126 351.504 282.317 351.504 282.521C351.504 282.849 351.615 283.127 351.838 283.356C352.067 283.585 352.342 283.7 352.663 283.7H353.851ZM356.142 283.7H358.156L358.74 285.388L358.156 287.058H356.142V283.7ZM357.942 285.388L358.545 283.7H359.732C359.565 283.335 359.482 282.945 359.482 282.531C359.482 282.135 359.565 281.745 359.732 281.362H359.482V278.013H369.576C370.392 278.013 371.147 278.217 371.839 278.625C372.532 279.027 373.079 279.574 373.481 280.267C373.883 280.953 374.084 281.708 374.084 282.531C374.084 283.347 373.88 284.105 373.472 284.804C373.07 285.496 372.523 286.047 371.83 286.455C371.143 286.857 370.392 287.058 369.576 287.058H358.545L357.942 285.388ZM364.018 283.7C364.34 283.7 364.612 283.588 364.835 283.366C365.064 283.137 365.178 282.858 365.178 282.531C365.178 282.209 365.064 281.934 364.835 281.705C364.612 281.476 364.34 281.362 364.018 281.362C363.808 281.362 363.613 281.414 363.434 281.519C363.261 281.625 363.122 281.767 363.017 281.946C362.911 282.126 362.859 282.32 362.859 282.531C362.859 282.852 362.97 283.127 363.193 283.356C363.422 283.585 363.697 283.7 364.018 283.7ZM369.576 283.7C369.897 283.7 370.169 283.585 370.392 283.356C370.621 283.127 370.735 282.852 370.735 282.531C370.735 282.32 370.683 282.126 370.578 281.946C370.472 281.767 370.33 281.625 370.151 281.519C369.978 281.414 369.786 281.362 369.576 281.362H368.314C368.462 281.745 368.537 282.135 368.537 282.531C368.537 282.945 368.462 283.335 368.314 283.7H369.576Z" fill="black"/>
</g>
<defs>
<filter id="filter0_d_56_2294" x="-12.3473" y="-69.3468" width="648.713" height="648.713" filterUnits="userSpaceOnUse" color-interpolation-filters="sRGB">
<feFlood flood-opacity="0" result="BackgroundImageFix"/>
<feColorMatrix in="SourceAlpha" type="matrix" values="0 0 0 0 0 0 0 0 0 0 0 0 0 0 0 0 0 0 127 0" result="hardAlpha"/>
<feOffset/>
<feGaussianBlur stdDeviation="107.95"/>
<feComposite in2="hardAlpha" operator="out"/>
<feColorMatrix type="matrix" values="0 0 0 0 0.764706 0 0 0 0 0.996078 0 0 0 0 0.00392157 0 0 0 0.6 0"/>
<feBlend mode="normal" in2="BackgroundImageFix" result="effect1_dropShadow_56_2294"/>
<feBlend mode="normal" in="SourceGraphic" in2="effect1_dropShadow_56_2294" result="shape"/>
</filter>
<clipPath id="clip0_56_2294">
<rect width="624" height="694" fill="white"/>
</clipPath>
</defs>
</svg>
