<svg width="24" height="25" viewBox="0 0 24 25" fill="none" xmlns="http://www.w3.org/2000/svg">
<path fill-rule="evenodd" clip-rule="evenodd" d="M20.3976 16.315C17.9376 17.295 15.1276 17.815 12.2476 17.815C9.36758 17.815 6.55758 17.295 4.10758 16.315C3.73758 16.165 3.37758 16.015 3.02758 15.845C2.85758 15.765 2.68758 15.685 2.51758 15.585L2.73758 21.825H21.7676L21.9776 15.585C21.8076 15.685 21.6376 15.765 21.4676 15.845C21.1176 16.015 20.7576 16.165 20.3976 16.315Z" fill="white"/>
<path fill-rule="evenodd" clip-rule="evenodd" d="M9.66691 6.0048L10.2429 4.6748H14.2559L14.8319 6.0048H9.66691ZM16.4669 6.0048L15.2429 3.1748H9.25591L8.03191 6.0048H2.50391V13.2918L2.75091 13.4368C5.15291 14.8418 8.18591 15.6598 11.3699 15.7888V17.0858H13.1289V15.7888C16.3149 15.6588 19.3479 14.8408 21.7469 13.4368L21.9949 13.2918V6.0048H16.4669Z" fill="white"/>
</svg>
